<?xml version="1.0" encoding="UTF-8" standalone="no"?>
<!-- Created with Inkscape (http://www.inkscape.org/) -->

<svg
   width="499.19583"
   height="230.8734"
   viewBox="0 0 499.19583 230.8734"
   version="1.1"
   id="svg1"
   inkscape:version="1.4 (86a8ad7, 2024-10-11)"
   sodipodi:docname="aee_logo2_groß.svg"
   xmlns:inkscape="http://www.inkscape.org/namespaces/inkscape"
   xmlns:sodipodi="http://sodipodi.sourceforge.net/DTD/sodipodi-0.dtd"
   xmlns="http://www.w3.org/2000/svg"
   xmlns:svg="http://www.w3.org/2000/svg">
  <sodipodi:namedview
     id="namedview1"
     pagecolor="#ffffff"
     bordercolor="#000000"
     borderopacity="0.25"
     inkscape:showpageshadow="2"
     inkscape:pageopacity="0.0"
     inkscape:pagecheckerboard="0"
     inkscape:deskcolor="#d1d1d1"
     inkscape:document-units="mm"
     inkscape:zoom="1.0467522"
     inkscape:cx="392.64306"
     inkscape:cy="558.39383"
     inkscape:window-width="2560"
     inkscape:window-height="1377"
     inkscape:window-x="-8"
     inkscape:window-y="-8"
     inkscape:window-maximized="1"
     inkscape:current-layer="layer1" />
  <defs
     id="defs1">
    <clipPath
       clipPathUnits="userSpaceOnUse"
       id="clipPath3">
      <path
         d="M 0,538.583 H 334.488 V 0 H 0 Z"
         transform="translate(-194.7334,-234.31841)"
         id="path3" />
    </clipPath>
    <clipPath
       clipPathUnits="userSpaceOnUse"
       id="clipPath5">
      <path
         d="M 0,538.583 H 334.488 V 0 H 0 Z"
         transform="translate(-209.0791,-243.24611)"
         id="path5" />
    </clipPath>
    <clipPath
       clipPathUnits="userSpaceOnUse"
       id="clipPath7">
      <path
         d="M 0,538.583 H 334.488 V 0 H 0 Z"
         id="path7" />
    </clipPath>
    <clipPath
       clipPathUnits="userSpaceOnUse"
       id="clipPath9">
      <path
         d="M 0,538.583 H 334.488 V 0 H 0 Z"
         id="path9" />
    </clipPath>
    <clipPath
       clipPathUnits="userSpaceOnUse"
       id="clipPath11">
      <path
         d="M 0,538.583 H 334.488 V 0 H 0 Z"
         transform="translate(-238.2568,-234.31841)"
         id="path11" />
    </clipPath>
    <clipPath
       clipPathUnits="userSpaceOnUse"
       id="clipPath13">
      <path
         d="M 0,538.583 H 334.488 V 0 H 0 Z"
         transform="translate(-151.9731,-231.0039)"
         id="path13" />
    </clipPath>
    <clipPath
       clipPathUnits="userSpaceOnUse"
       id="clipPath15">
      <path
         d="M 0,538.583 H 334.488 V 0 H 0 Z"
         transform="translate(-157.8994,-238.19921)"
         id="path15" />
    </clipPath>
    <clipPath
       clipPathUnits="userSpaceOnUse"
       id="clipPath17">
      <path
         d="M 0,538.583 H 334.488 V 0 H 0 Z"
         transform="translate(-230.33691,-284.856)"
         id="path17" />
    </clipPath>
    <clipPath
       clipPathUnits="userSpaceOnUse"
       id="clipPath19">
      <path
         d="M 0,538.583 H 334.488 V 0 H 0 Z"
         transform="translate(-181.125,-240.2754)"
         id="path19" />
    </clipPath>
    <clipPath
       clipPathUnits="userSpaceOnUse"
       id="clipPath21">
      <path
         d="M 0,538.583 H 334.488 V 0 H 0 Z"
         transform="translate(-198.4951,-240.2754)"
         id="path21" />
    </clipPath>
    <clipPath
       clipPathUnits="userSpaceOnUse"
       id="clipPath23">
      <path
         d="M 0,538.583 H 334.488 V 0 H 0 Z"
         transform="translate(-211.83301,-239.5371)"
         id="path23" />
    </clipPath>
    <clipPath
       clipPathUnits="userSpaceOnUse"
       id="clipPath25">
      <path
         d="M 0,538.583 H 334.488 V 0 H 0 Z"
         transform="translate(-224.6494,-240.2754)"
         id="path25" />
    </clipPath>
    <clipPath
       clipPathUnits="userSpaceOnUse"
       id="clipPath27">
      <path
         d="M 0,538.583 H 334.488 V 0 H 0 Z"
         transform="translate(-254.70801,-259.24611)"
         id="path27" />
    </clipPath>
    <clipPath
       clipPathUnits="userSpaceOnUse"
       id="clipPath29">
      <path
         d="M 0,538.583 H 334.488 V 0 H 0 Z"
         transform="translate(-246.48241,-252.18951)"
         id="path29" />
    </clipPath>
    <clipPath
       clipPathUnits="userSpaceOnUse"
       id="clipPath31">
      <path
         d="M 0,538.583 H 334.488 V 0 H 0 Z"
         transform="translate(-238.47271,-253.59381)"
         id="path31" />
    </clipPath>
    <clipPath
       clipPathUnits="userSpaceOnUse"
       id="clipPath33">
      <path
         d="M 0,538.583 H 334.488 V 0 H 0 Z"
         transform="translate(-231.95611,-259.24611)"
         id="path33" />
    </clipPath>
    <clipPath
       clipPathUnits="userSpaceOnUse"
       id="clipPath35">
      <path
         d="M 0,538.583 H 334.488 V 0 H 0 Z"
         transform="translate(-221.37301,-256.27541)"
         id="path35" />
    </clipPath>
    <clipPath
       clipPathUnits="userSpaceOnUse"
       id="clipPath37">
      <path
         d="M 0,538.583 H 334.488 V 0 H 0 Z"
         transform="translate(-210.30271,-259.08401)"
         id="path37" />
    </clipPath>
    <clipPath
       clipPathUnits="userSpaceOnUse"
       id="clipPath39">
      <path
         d="M 0,538.583 H 334.488 V 0 H 0 Z"
         transform="translate(-204.00291,-256.27541)"
         id="path39" />
    </clipPath>
    <clipPath
       clipPathUnits="userSpaceOnUse"
       id="clipPath41">
      <path
         d="M 0,538.583 H 334.488 V 0 H 0 Z"
         transform="translate(-200.24121,-250.31841)"
         id="path41" />
    </clipPath>
    <clipPath
       clipPathUnits="userSpaceOnUse"
       id="clipPath43">
      <path
         d="M 0,538.583 H 334.488 V 0 H 0 Z"
         transform="translate(-191.709,-259.24611)"
         id="path43" />
    </clipPath>
    <clipPath
       clipPathUnits="userSpaceOnUse"
       id="clipPath45">
      <path
         d="M 0,538.583 H 334.488 V 0 H 0 Z"
         transform="translate(-181.125,-256.27541)"
         id="path45" />
    </clipPath>
    <clipPath
       clipPathUnits="userSpaceOnUse"
       id="clipPath47">
      <path
         d="M 0,538.583 H 334.488 V 0 H 0 Z"
         transform="translate(-257.75101,-256.27541)"
         id="path47" />
    </clipPath>
    <clipPath
       clipPathUnits="userSpaceOnUse"
       id="clipPath49">
      <path
         d="M 0,538.583 H 334.488 V 0 H 0 Z"
         id="path49" />
    </clipPath>
    <clipPath
       clipPathUnits="userSpaceOnUse"
       id="clipPath51">
      <path
         d="M 0,538.583 H 334.488 V 0 H 0 Z"
         id="path51" />
    </clipPath>
    <clipPath
       clipPathUnits="userSpaceOnUse"
       id="clipPath53">
      <path
         d="M 0,538.583 H 334.488 V 0 H 0 Z"
         transform="translate(-222.68751,-266.3184)"
         id="path53" />
    </clipPath>
    <clipPath
       clipPathUnits="userSpaceOnUse"
       id="clipPath55">
      <path
         d="M 0,538.583 H 334.488 V 0 H 0 Z"
         transform="translate(-211.2754,-268.78371)"
         id="path55" />
    </clipPath>
    <clipPath
       clipPathUnits="userSpaceOnUse"
       id="clipPath57">
      <path
         d="M 0,538.583 H 334.488 V 0 H 0 Z"
         transform="translate(-204.3994,-266.3184)"
         id="path57" />
    </clipPath>
    <clipPath
       clipPathUnits="userSpaceOnUse"
       id="clipPath59">
      <path
         d="M 0,538.583 H 334.488 V 0 H 0 Z"
         id="path59" />
    </clipPath>
    <clipPath
       clipPathUnits="userSpaceOnUse"
       id="clipPath61">
      <path
         d="M 0,538.583 H 334.488 V 0 H 0 Z"
         id="path61" />
    </clipPath>
    <clipPath
       clipPathUnits="userSpaceOnUse"
       id="clipPath63">
      <path
         d="M 0,538.583 H 334.488 V 0 H 0 Z"
         transform="translate(-187.83891,-275.0835)"
         id="path63" />
    </clipPath>
    <clipPath
       clipPathUnits="userSpaceOnUse"
       id="clipPath65">
      <path
         d="M 0,538.583 H 334.488 V 0 H 0 Z"
         transform="translate(-186.2734,-272.27541)"
         id="path65" />
    </clipPath>
    <clipPath
       clipPathUnits="userSpaceOnUse"
       id="clipPath67">
      <path
         d="M 0,538.583 H 334.488 V 0 H 0 Z"
         transform="translate(-234.7285,-268.85601)"
         id="path67" />
    </clipPath>
    <clipPath
       clipPathUnits="userSpaceOnUse"
       id="clipPath69">
      <path
         d="M 0,538.583 H 334.488 V 0 H 0 Z"
         transform="translate(-222.5605,-282.31791)"
         id="path69" />
    </clipPath>
    <clipPath
       clipPathUnits="userSpaceOnUse"
       id="clipPath71">
      <path
         d="M 0,538.583 H 334.488 V 0 H 0 Z"
         transform="translate(-213.61521,-285.5757)"
         id="path71" />
    </clipPath>
    <clipPath
       clipPathUnits="userSpaceOnUse"
       id="clipPath73">
      <path
         d="M 0,538.583 H 334.488 V 0 H 0 Z"
         id="path73" />
    </clipPath>
    <clipPath
       clipPathUnits="userSpaceOnUse"
       id="clipPath75">
      <path
         d="M 0,538.583 H 334.488 V 0 H 0 Z"
         id="path75" />
    </clipPath>
    <clipPath
       clipPathUnits="userSpaceOnUse"
       id="clipPath77">
      <path
         d="M 0,538.583 H 334.488 V 0 H 0 Z"
         transform="translate(-200.65531,-284.082)"
         id="path77" />
    </clipPath>
    <clipPath
       clipPathUnits="userSpaceOnUse"
       id="clipPath79">
      <path
         d="M 0,538.583 H 334.488 V 0 H 0 Z"
         transform="translate(-192.6816,-291.08351)"
         id="path79" />
    </clipPath>
    <clipPath
       clipPathUnits="userSpaceOnUse"
       id="clipPath81">
      <path
         d="M 0,538.583 H 334.488 V 0 H 0 Z"
         transform="translate(-189.83691,-282.31791)"
         id="path81" />
    </clipPath>
    <clipPath
       clipPathUnits="userSpaceOnUse"
       id="clipPath83">
      <path
         d="M 0,538.583 H 334.488 V 0 H 0 Z"
         transform="translate(-185.7871,-288.11381)"
         id="path83" />
    </clipPath>
    <clipPath
       clipPathUnits="userSpaceOnUse"
       id="clipPath85">
      <path
         d="M 0,538.583 H 334.488 V 0 H 0 Z"
         transform="translate(-143.82081,-275.3418)"
         id="path85" />
    </clipPath>
  </defs>
  <g
     inkscape:label="Ebene 1"
     inkscape:groupmode="layer"
     id="layer1"
     transform="matrix(1.6487964,0,0,1.6487964,-42.842788,-46.6271)">
    <g
       id="group-MC0"
       style="display:inline"
       transform="matrix(1.1792488,0,0,1.1792488,-84.078633,-326.41058)">
      <path
         id="path2"
         d="m 0,0 v 6.371 c 0,1.567 -0.504,2.574 -1.908,2.574 -1.008,0 -2.395,-0.468 -3.51,-1.025 L -5.814,8.766 H -7.218 V 0 h 2.088 v 6.119 c 0.81,0.414 1.764,0.756 2.304,0.756 0.521,0 0.738,-0.252 0.738,-0.738 V 0 Z"
         style="fill:#0887c9;fill-opacity:1;fill-rule:nonzero;stroke:none"
         transform="matrix(1.3333333,0,0,-1.3333333,259.64453,405.68613)"
         clip-path="url(#clipPath3)" />
      <path
         id="path4"
         d="m 0,0 c -0.738,-0.217 -1.656,-0.828 -2.269,-1.277 l -0.521,1.115 h -1.386 v -8.766 h 2.088 v 5.688 c 0.774,0.486 1.476,0.72 2.304,0.918 z"
         style="fill:#0887c9;fill-opacity:1;fill-rule:nonzero;stroke:none"
         transform="matrix(1.3333333,0,0,-1.3333333,278.77213,393.78253)"
         clip-path="url(#clipPath5)" />
      <path
         id="path6"
         d="m 220.761,243.084 h -2.088 v -8.766 h 2.088 z"
         style="fill:#0887c9;fill-opacity:1;fill-rule:nonzero;stroke:none"
         transform="matrix(1.3333333,0,0,-1.3333333,0,718.11067)"
         clip-path="url(#clipPath7)" />
      <path
         id="path8"
         d="m 220.761,246.9 h -2.088 v -2.484 h 2.088 z"
         style="fill:#0887c9;fill-opacity:1;fill-rule:nonzero;stroke:none"
         transform="matrix(1.3333333,0,0,-1.3333333,0,718.11067)"
         clip-path="url(#clipPath9)" />
      <path
         id="path10"
         d="m 0,0 v 6.371 c 0,1.567 -0.504,2.574 -1.908,2.574 -1.008,0 -2.394,-0.468 -3.51,-1.025 L -5.814,8.766 H -7.218 V 0 h 2.088 v 6.119 c 0.81,0.414 1.764,0.756 2.304,0.756 0.521,0 0.738,-0.252 0.738,-0.738 V 0 Z"
         style="fill:#0887c9;fill-opacity:1;fill-rule:nonzero;stroke:none"
         transform="matrix(1.3333333,0,0,-1.3333333,317.67573,405.68613)"
         clip-path="url(#clipPath11)" />
      <path
         id="path12"
         d="m 0,0 c -0.695,0.254 -1.372,0.531 -2.028,0.828 -3.319,-1.502 -7.139,-2.474 -11.237,-2.762 -4.098,0.288 -7.918,1.26 -11.236,2.762 -3.322,-1.502 -7.146,-2.476 -11.249,-2.762 -4.103,0.286 -7.927,1.26 -11.249,2.762 -3.318,-1.502 -7.138,-2.474 -11.236,-2.762 -4.098,0.288 -7.918,1.26 -11.236,2.762 -0.625,-0.283 -1.268,-0.547 -1.927,-0.791 2.77,-2.562 6.055,-4.818 9.743,-6.687 1.113,-0.19 2.256,-0.327 3.42,-0.407 4.098,0.286 7.918,1.26 11.236,2.762 3.322,-1.504 7.146,-2.478 11.249,-2.764 4.103,0.286 7.927,1.26 11.249,2.764 3.318,-1.502 7.138,-2.476 11.236,-2.762 1.24,0.086 2.453,0.237 3.636,0.444 C -5.989,-4.76 -2.743,-2.529 0,0"
         style="fill:#0887c9;fill-opacity:1;fill-rule:nonzero;stroke:none"
         transform="matrix(1.3333333,0,0,-1.3333333,202.6308,410.10547)"
         clip-path="url(#clipPath13)" />
      <path
         id="path14"
         d="m 0,0 c -2.86,0.473 -5.54,1.287 -7.955,2.379 -3.318,-1.502 -7.138,-2.477 -11.236,-2.762 -4.099,0.285 -7.918,1.26 -11.236,2.762 -3.322,-1.502 -7.146,-2.479 -11.249,-2.762 -4.103,0.283 -7.928,1.26 -11.249,2.762 -3.318,-1.502 -7.138,-2.477 -11.236,-2.762 -4.098,0.285 -7.918,1.26 -11.236,2.762 -2.379,-1.076 -5.015,-1.881 -7.827,-2.358 0.92,-1.537 1.996,-3.011 3.217,-4.417 1.619,0.441 3.162,0.996 4.61,1.65 3.318,-1.5 7.138,-2.475 11.236,-2.76 4.098,0.285 7.918,1.26 11.236,2.76 3.321,-1.502 7.146,-2.477 11.249,-2.762 4.103,0.285 7.927,1.26 11.249,2.762 3.318,-1.5 7.137,-2.475 11.236,-2.76 4.098,0.285 7.918,1.26 11.236,2.76 1.482,-0.67 3.063,-1.234 4.725,-1.68 C -2.004,-3.02 -0.923,-1.539 0,0"
         style="fill:#0887c9;fill-opacity:1;fill-rule:nonzero;stroke:none"
         transform="matrix(1.3333333,0,0,-1.3333333,210.53253,400.51173)"
         clip-path="url(#clipPath15)" />
      <path
         id="path16"
         d="m 0,0 c 0,-1.692 -0.504,-2.718 -3.078,-2.718 -0.882,0 -2.16,0.234 -2.97,0.504 l 0.324,1.584 c 0.702,-0.198 1.656,-0.396 2.537,-0.396 0.991,0 1.117,0.288 1.117,0.972 0,0.558 -0.144,0.882 -1.53,1.242 -1.926,0.504 -2.322,1.062 -2.322,2.7 0,1.763 0.756,2.519 3.186,2.519 0.756,0 1.818,-0.125 2.556,-0.305 L -0.396,4.446 c -0.648,0.126 -1.674,0.27 -2.34,0.27 -0.972,0 -1.152,-0.288 -1.152,-0.846 0,-0.721 0.108,-0.828 1.26,-1.134 C -0.396,2.142 0,1.764 0,0"
         style="fill:#0887c9;fill-opacity:1;fill-rule:nonzero;stroke:none"
         transform="matrix(1.3333333,0,0,-1.3333333,307.11587,338.30267)"
         clip-path="url(#clipPath17)" />
      <path
         id="path18"
         d="M 0,0 C 0,0.846 0.379,1.459 1.477,1.459 2.574,1.459 2.826,0.846 2.826,0 V -0.9 H 0 Z m 4.807,-2.285 v 1.746 c 0,1.889 -0.613,3.527 -3.349,3.527 -2.735,0 -3.563,-1.566 -3.563,-3.402 v -2.357 c 0,-2.106 0.936,-3.366 3.635,-3.366 0.991,0 2.16,0.18 3.132,0.539 L 4.339,-4.141 C 3.42,-4.428 2.557,-4.59 1.729,-4.59 0.36,-4.59 0,-4.104 0,-3.023 v 0.738 z"
         style="fill:#0887c9;fill-opacity:1;fill-rule:nonzero;stroke:none"
         transform="matrix(1.3333333,0,0,-1.3333333,241.5,397.74347)"
         clip-path="url(#clipPath19)" />
      <path
         id="path20"
         d="M 0,0 C 0,0.846 0.378,1.459 1.477,1.459 2.573,1.459 2.826,0.846 2.826,0 V -0.9 H 0 Z m 4.806,-2.285 v 1.746 c 0,1.889 -0.612,3.527 -3.348,3.527 -2.736,0 -3.564,-1.566 -3.564,-3.402 v -2.357 c 0,-2.106 0.936,-3.366 3.636,-3.366 0.991,0 2.159,0.18 3.132,0.539 L 4.338,-4.141 C 3.42,-4.428 2.556,-4.59 1.729,-4.59 0.359,-4.59 0,-4.104 0,-3.023 v 0.738 z"
         style="fill:#0887c9;fill-opacity:1;fill-rule:nonzero;stroke:none"
         transform="matrix(1.3333333,0,0,-1.3333333,264.66013,397.74347)"
         clip-path="url(#clipPath21)" />
      <path
         id="path22"
         d="m 0,0 v 0.811 c 0,0.845 0.378,1.277 1.476,1.277 1.098,0 1.511,-0.432 1.511,-1.277 V 0 C 2.987,-0.863 2.52,-1.26 1.476,-1.26 0.432,-1.26 0,-0.881 0,0 m 3.456,-4.301 -2.502,0.287 c -0.378,0.037 -0.54,0.18 -0.54,0.432 0,0.289 0.233,0.541 0.558,0.738 0.162,-0.017 0.305,-0.017 0.504,-0.017 2.412,0 3.438,1.08 3.438,2.843 v 0.846 c 0,0.486 -0.108,0.99 -0.307,1.387 L 5.202,2.395 5.598,2.502 5.273,3.799 3.672,3.439 C 3.24,3.547 2.556,3.727 1.476,3.727 c -2.484,0 -3.42,-1.081 -3.456,-2.899 v -0.846 c 0,-1.043 0.396,-1.853 1.224,-2.375 -0.45,-0.324 -0.954,-0.81 -0.954,-1.494 0,-1.08 0.54,-1.494 1.674,-1.638 l 2.502,-0.289 c 0.702,-0.071 0.864,-0.18 0.864,-0.774 0,-0.594 -0.324,-0.846 -2.088,-0.846 -1.009,0 -1.98,0.235 -2.898,0.469 l -0.27,-1.531 c 0.972,-0.305 2.358,-0.484 3.312,-0.484 3.204,0 3.887,0.736 3.887,2.591 0,1.243 -0.503,1.909 -1.817,2.088"
         style="fill:#0887c9;fill-opacity:1;fill-rule:nonzero;stroke:none"
         transform="matrix(1.3333333,0,0,-1.3333333,282.444,398.72787)"
         clip-path="url(#clipPath23)" />
      <path
         id="path24"
         d="M 0,0 C 0,0.846 0.378,1.459 1.476,1.459 2.573,1.459 2.825,0.846 2.825,0 V -0.9 H 0 Z m 4.806,-2.285 v 1.746 c 0,1.889 -0.613,3.527 -3.349,3.527 -2.735,0 -3.563,-1.566 -3.563,-3.402 v -2.357 c 0,-2.106 0.935,-3.366 3.635,-3.366 0.991,0 2.16,0.18 3.132,0.539 L 4.338,-4.141 C 3.419,-4.428 2.556,-4.59 1.728,-4.59 0.359,-4.59 0,-4.104 0,-3.023 v 0.738 z"
         style="fill:#0887c9;fill-opacity:1;fill-rule:nonzero;stroke:none"
         transform="matrix(1.3333333,0,0,-1.3333333,299.53253,397.74347)"
         clip-path="url(#clipPath25)" />
      <path
         id="path26"
         d="m 0,0 c -0.737,-0.217 -1.655,-0.828 -2.268,-1.277 l -0.522,1.115 h -1.386 v -8.766 h 2.088 v 5.688 c 0.775,0.486 1.477,0.72 2.304,0.918 z"
         style="fill:#0887c9;fill-opacity:1;fill-rule:nonzero;stroke:none"
         transform="matrix(1.3333333,0,0,-1.3333333,339.61067,372.4492)"
         clip-path="url(#clipPath27)" />
      <path
         id="path28"
         d="m 0,0 c -0.45,-0.252 -1.224,-0.467 -1.854,-0.467 -0.738,0 -0.917,0.377 -0.917,1.008 0,0.684 0.179,1.008 0.953,1.008 H 0 Z m -1.314,7.074 c -0.917,0 -2.016,-0.162 -2.844,-0.414 l 0.269,-1.494 c 0.739,0.162 1.477,0.307 2.25,0.307 C -0.234,5.473 0,5.059 0,4.068 V 2.881 h -2.196 c -1.746,0 -2.502,-0.613 -2.502,-2.395 0,-1.511 0.666,-2.537 2.214,-2.537 0.864,0 1.872,0.395 2.7,0.936 L 0.54,-1.871 h 1.53 v 5.795 c 0,2.197 -0.702,3.15 -3.384,3.15"
         style="fill:#0887c9;fill-opacity:1;fill-rule:nonzero;stroke:none"
         transform="matrix(1.3333333,0,0,-1.3333333,328.6432,381.858)"
         clip-path="url(#clipPath29)" />
      <path
         id="path30"
         d="m 0,0 c 0,-1.045 -0.288,-1.639 -1.746,-1.639 -0.486,0 -0.937,0.018 -1.35,0.073 V 3.348 C -2.538,3.6 -1.764,3.852 -1.152,3.852 -0.324,3.852 0,3.455 0,2.736 Z M -0.486,5.67 C -1.44,5.67 -2.43,5.4 -3.096,5.129 V 9.414 C -3.798,9.324 -4.464,9.197 -5.166,9.107 V -3.168 c 1.062,-0.217 2.466,-0.287 3.312,-0.287 3.312,0 3.942,1.422 3.942,3.545 v 2.592 c 0,1.853 -0.738,2.988 -2.574,2.988"
         style="fill:#0887c9;fill-opacity:1;fill-rule:nonzero;stroke:none"
         transform="matrix(1.3333333,0,0,-1.3333333,317.9636,379.9856)"
         clip-path="url(#clipPath31)" />
      <path
         id="path32"
         d="m 0,0 c -0.737,-0.217 -1.655,-0.828 -2.268,-1.277 l -0.521,1.115 h -1.387 v -8.766 h 2.088 v 5.688 c 0.775,0.486 1.477,0.72 2.305,0.918 z"
         style="fill:#0887c9;fill-opacity:1;fill-rule:nonzero;stroke:none"
         transform="matrix(1.3333333,0,0,-1.3333333,309.2748,372.4492)"
         clip-path="url(#clipPath33)" />
      <path
         id="path34"
         d="M 0,0 C 0,0.846 0.378,1.459 1.476,1.459 2.573,1.459 2.826,0.846 2.826,0 V -0.9 H 0 Z m 4.806,-2.285 v 1.746 c 0,1.889 -0.613,3.527 -3.349,3.527 -2.735,0 -3.563,-1.566 -3.563,-3.402 v -2.357 c 0,-2.106 0.936,-3.366 3.635,-3.366 0.991,0 2.16,0.18 3.132,0.539 L 4.338,-4.141 C 3.42,-4.428 2.556,-4.59 1.728,-4.59 0.359,-4.59 0,-4.104 0,-3.023 v 0.738 z"
         style="fill:#0887c9;fill-opacity:1;fill-rule:nonzero;stroke:none"
         transform="matrix(1.3333333,0,0,-1.3333333,295.164,376.41013)"
         clip-path="url(#clipPath35)" />
      <path
         id="path36"
         d="m 0,0 v -6.373 c 0,-1.565 0.504,-2.572 1.908,-2.572 1.008,0 2.394,0.377 3.51,0.935 L 5.796,-8.766 H 7.218 V 0 H 5.13 V -6.174 C 4.32,-6.588 3.366,-6.93 2.826,-6.93 c -0.522,0 -0.738,0.305 -0.738,0.791 V 0 Z"
         style="fill:#0887c9;fill-opacity:1;fill-rule:nonzero;stroke:none"
         transform="matrix(1.3333333,0,0,-1.3333333,280.4036,372.66533)"
         clip-path="url(#clipPath37)" />
      <path
         id="path38"
         d="M 0,0 C 0,0.846 0.378,1.459 1.477,1.459 2.574,1.459 2.826,0.846 2.826,0 V -0.9 H 0 Z m 4.806,-2.285 v 1.746 c 0,1.889 -0.612,3.527 -3.348,3.527 -2.735,0 -3.563,-1.566 -3.563,-3.402 v -2.357 c 0,-2.106 0.935,-3.366 3.635,-3.366 0.991,0 2.159,0.18 3.132,0.539 L 4.338,-4.141 C 3.42,-4.428 2.556,-4.59 1.729,-4.59 0.36,-4.59 0,-4.104 0,-3.023 v 0.738 z"
         style="fill:#0887c9;fill-opacity:1;fill-rule:nonzero;stroke:none"
         transform="matrix(1.3333333,0,0,-1.3333333,272.00387,376.41013)"
         clip-path="url(#clipPath39)" />
      <path
         id="path40"
         d="m 0,0 v 6.371 c 0,1.567 -0.504,2.574 -1.908,2.574 -1.008,0 -2.394,-0.468 -3.51,-1.025 L -5.814,8.766 H -7.218 V 0 h 2.088 v 6.119 c 0.81,0.414 1.764,0.756 2.304,0.756 0.522,0 0.738,-0.252 0.738,-0.738 V 0 Z"
         style="fill:#0887c9;fill-opacity:1;fill-rule:nonzero;stroke:none"
         transform="matrix(1.3333333,0,0,-1.3333333,266.98827,384.3528)"
         clip-path="url(#clipPath41)" />
      <path
         id="path42"
         d="m 0,0 c -0.737,-0.217 -1.656,-0.828 -2.268,-1.277 l -0.522,1.115 h -1.386 v -8.766 h 2.088 v 5.688 c 0.775,0.486 1.477,0.72 2.304,0.918 z"
         style="fill:#0887c9;fill-opacity:1;fill-rule:nonzero;stroke:none"
         transform="matrix(1.3333333,0,0,-1.3333333,255.612,372.4492)"
         clip-path="url(#clipPath43)" />
      <path
         id="path44"
         d="M 0,0 C 0,0.846 0.379,1.459 1.477,1.459 2.574,1.459 2.826,0.846 2.826,0 V -0.9 H 0 Z m 4.807,-2.285 v 1.746 c 0,1.889 -0.613,3.527 -3.349,3.527 -2.735,0 -3.563,-1.566 -3.563,-3.402 v -2.357 c 0,-2.106 0.936,-3.366 3.635,-3.366 0.991,0 2.16,0.18 3.132,0.539 L 4.339,-4.141 C 3.42,-4.428 2.557,-4.59 1.729,-4.59 0.36,-4.59 0,-4.104 0,-3.023 v 0.738 z"
         style="fill:#0887c9;fill-opacity:1;fill-rule:nonzero;stroke:none"
         transform="matrix(1.3333333,0,0,-1.3333333,241.5,376.41013)"
         clip-path="url(#clipPath45)" />
      <path
         id="path46"
         d="M 0,0 C 0,0.846 0.377,1.459 1.476,1.459 2.573,1.459 2.825,0.846 2.825,0 V -0.9 H 0 Z m 4.806,-2.285 v 1.746 c 0,1.889 -0.613,3.527 -3.349,3.527 -2.735,0 -3.563,-1.566 -3.563,-3.402 v -2.357 c 0,-2.106 0.935,-3.366 3.635,-3.366 0.991,0 2.16,0.18 3.132,0.539 L 4.337,-4.141 C 3.419,-4.428 2.556,-4.59 1.728,-4.59 0.359,-4.59 0,-4.104 0,-3.023 v 0.738 z"
         style="fill:#0887c9;fill-opacity:1;fill-rule:nonzero;stroke:none"
         transform="matrix(1.3333333,0,0,-1.3333333,343.668,376.41013)"
         clip-path="url(#clipPath47)" />
      <path
         id="path48"
         d="m 226.827,278.9 h -2.088 v -2.484 h 2.088 z"
         style="fill:#0887c9;fill-opacity:1;fill-rule:nonzero;stroke:none"
         transform="matrix(1.3333333,0,0,-1.3333333,0,718.11067)"
         clip-path="url(#clipPath49)" />
      <path
         id="path50"
         d="m 226.827,275.083 h -2.088 v -8.765 h 2.088 z"
         style="fill:#0887c9;fill-opacity:1;fill-rule:nonzero;stroke:none"
         transform="matrix(1.3333333,0,0,-1.3333333,0,718.11067)"
         clip-path="url(#clipPath51)" />
      <path
         id="path52"
         d="m 0,0 v 6.372 c 0,1.565 -0.505,2.573 -1.908,2.573 -1.008,0 -2.395,-0.468 -3.51,-1.026 L -5.814,8.765 H -7.219 V 0 h 2.088 v 6.119 c 0.811,0.414 1.765,0.756 2.305,0.756 0.521,0 0.737,-0.252 0.737,-0.738 V 0 Z"
         style="fill:#0887c9;fill-opacity:1;fill-rule:nonzero;stroke:none"
         transform="matrix(1.3333333,0,0,-1.3333333,296.91667,363.01947)"
         clip-path="url(#clipPath53)" />
      <path
         id="path54"
         d="m 0,0 c -0.486,-0.45 -1.26,-0.829 -1.98,-0.829 -0.846,0 -1.098,0.414 -1.098,1.153 v 3.132 c 0,0.81 0.306,1.224 1.115,1.224 0.649,0 1.387,-0.126 1.963,-0.252 z M 0,9.918 V 6.21 c -0.685,0.144 -1.566,0.27 -2.34,0.27 -1.998,0 -2.845,-1.134 -2.845,-3.078 V 0.378 c 0,-1.998 0.918,-3.023 2.647,-3.023 1.08,0 1.962,0.449 2.754,1.025 L 0.63,-2.465 H 2.105 V 10.224 C 1.386,10.134 0.702,10.008 0,9.918"
         style="fill:#0887c9;fill-opacity:1;fill-rule:nonzero;stroke:none"
         transform="matrix(1.3333333,0,0,-1.3333333,281.70053,359.7324)"
         clip-path="url(#clipPath55)" />
      <path
         id="path56"
         d="m 0,0 v 6.372 c 0,1.565 -0.504,2.573 -1.908,2.573 -1.008,0 -2.394,-0.468 -3.51,-1.026 L -5.814,8.765 H -7.219 V 0 h 2.089 v 6.119 c 0.81,0.414 1.764,0.756 2.304,0.756 0.521,0 0.738,-0.252 0.738,-0.738 V 0 Z"
         style="fill:#0887c9;fill-opacity:1;fill-rule:nonzero;stroke:none"
         transform="matrix(1.3333333,0,0,-1.3333333,272.53253,363.01947)"
         clip-path="url(#clipPath57)" />
      <path
         id="path58"
         d="m 192.375,276.38 h 1.729 v 1.818 h -1.729 z"
         style="fill:#0887c9;fill-opacity:1;fill-rule:nonzero;stroke:none"
         transform="matrix(1.3333333,0,0,-1.3333333,0,718.11067)"
         clip-path="url(#clipPath59)" />
      <path
         id="path60"
         d="m 189.01,276.38 h 1.728 v 1.818 h -1.728 z"
         style="fill:#0887c9;fill-opacity:1;fill-rule:nonzero;stroke:none"
         transform="matrix(1.3333333,0,0,-1.3333333,0,718.11067)"
         clip-path="url(#clipPath61)" />
      <path
         id="path62"
         d="m 0,0 v -6.372 c 0,-1.565 0.504,-2.573 1.908,-2.573 1.009,0 2.395,0.377 3.511,0.936 L 5.617,-8.765 H 7.219 V 0 H 5.131 V -6.12 C 4.32,-6.535 3.367,-6.876 2.826,-6.876 c -0.521,0 -0.737,0.251 -0.737,0.738 V 0 Z"
         style="fill:#0887c9;fill-opacity:1;fill-rule:nonzero;stroke:none"
         transform="matrix(1.3333333,0,0,-1.3333333,250.45187,351.33267)"
         clip-path="url(#clipPath63)" />
      <path
         id="path64"
         d="m 0,0 v -2.592 c 0,-2.123 -0.63,-3.545 -3.942,-3.545 -0.846,0 -2.25,0.071 -3.312,0.287 V 6.426 c 0.702,0.09 1.368,0.216 2.07,0.306 V 2.448 c 0.666,0.27 1.656,0.54 2.61,0.54 C -0.738,2.988 0,1.854 0,0 m -5.184,0.666 v -4.914 c 0.414,-0.055 0.865,-0.072 1.35,-0.072 1.458,0 1.746,0.593 1.746,1.638 v 2.736 c 0,0.72 -0.324,1.116 -1.152,1.116 -0.612,0 -1.386,-0.252 -1.944,-0.504"
         style="fill:#0887c9;fill-opacity:1;fill-rule:nonzero;stroke:none"
         transform="matrix(1.3333333,0,0,-1.3333333,248.36453,355.0768)"
         clip-path="url(#clipPath65)" />
      <path
         id="path66"
         d="m 0,0 c 0,1.764 -0.396,2.142 -2.628,2.736 -1.151,0.306 -1.26,0.413 -1.26,1.134 0,0.558 0.181,0.846 1.153,0.846 0.666,0 1.691,-0.144 2.339,-0.27 l 0.216,1.656 c -0.738,0.18 -1.799,0.306 -2.555,0.306 -2.431,0 -3.187,-0.756 -3.187,-2.52 0,-1.638 0.397,-2.196 2.322,-2.7 1.386,-0.36 1.531,-0.684 1.531,-1.243 0,-0.684 -0.126,-0.971 -1.117,-0.971 -0.881,0 -1.835,0.197 -2.538,0.397 l -0.324,-1.584 c 0.811,-0.272 2.088,-0.504 2.97,-0.504 C -0.504,-2.717 0,-1.692 0,0"
         style="fill:#0887c9;fill-opacity:1;fill-rule:nonzero;stroke:none"
         transform="matrix(1.3333333,0,0,-1.3333333,312.97133,359.636)"
         clip-path="url(#clipPath67)" />
      <path
         id="path68"
         d="m 0,0 v 6.372 c 0,1.566 -0.504,2.573 -1.907,2.573 -1.009,0 -2.395,-0.467 -3.511,-1.025 L -5.813,8.766 H -7.218 V 0 h 2.088 v 6.12 c 0.811,0.414 1.765,0.756 2.305,0.756 0.521,0 0.738,-0.252 0.738,-0.738 V 0 Z"
         style="fill:#0887c9;fill-opacity:1;fill-rule:nonzero;stroke:none"
         transform="matrix(1.3333333,0,0,-1.3333333,296.74733,341.6868)"
         clip-path="url(#clipPath69)" />
      <path
         id="path70"
         d="m 0,0 c 0,-1.782 -0.828,-3.438 -3.744,-3.438 -2.934,0 -3.744,1.656 -3.744,3.438 v 2.25 c 0,1.782 0.81,3.438 3.744,3.438 C -0.828,5.688 0,4.032 0,2.25 Z m -2.105,2.34 c 0,1.008 -0.469,1.602 -1.639,1.602 -1.189,0 -1.638,-0.594 -1.638,-1.602 v -2.43 c 0,-1.008 0.449,-1.602 1.638,-1.602 1.17,0 1.639,0.594 1.639,1.602 z"
         style="fill:#0887c9;fill-opacity:1;fill-rule:nonzero;stroke:none"
         transform="matrix(1.3333333,0,0,-1.3333333,284.82027,337.34307)"
         clip-path="url(#clipPath71)" />
      <path
         id="path72"
         d="m 204.363,294.9 h -2.088 v -2.484 h 2.088 z"
         style="fill:#0887c9;fill-opacity:1;fill-rule:nonzero;stroke:none"
         transform="matrix(1.3333333,0,0,-1.3333333,0,718.11067)"
         clip-path="url(#clipPath73)" />
      <path
         id="path74"
         d="m 204.363,291.083 h -2.088 v -8.766 h 2.088 z"
         style="fill:#0887c9;fill-opacity:1;fill-rule:nonzero;stroke:none"
         transform="matrix(1.3333333,0,0,-1.3333333,0,718.11067)"
         clip-path="url(#clipPath75)" />
      <path
         id="path76"
         d="m 0,0 c -0.342,-0.09 -0.756,-0.162 -1.062,-0.162 -0.576,0 -0.81,0.324 -0.81,0.809 V 5.31 h 2.07 C 0.234,5.886 0.306,6.425 0.342,7.001 H -1.872 V 9.504 C -2.574,9.414 -3.275,9.288 -3.978,9.198 V 7.001 H -5.273 V 5.31 h 1.295 V 0.359 c 0,-1.565 0.774,-2.303 2.358,-2.303 0.522,0 1.404,0.125 1.854,0.323 z"
         style="fill:#0887c9;fill-opacity:1;fill-rule:nonzero;stroke:none"
         transform="matrix(1.3333333,0,0,-1.3333333,267.5404,339.33467)"
         clip-path="url(#clipPath77)" />
      <path
         id="path78"
         d="M 0,0 -2.43,-4.338 0.144,-8.766 H 2.43 L -0.198,-4.338 2.322,0 Z"
         style="fill:#0887c9;fill-opacity:1;fill-rule:nonzero;stroke:none"
         transform="matrix(1.3333333,0,0,-1.3333333,256.9088,329.99933)"
         clip-path="url(#clipPath79)" />
      <path
         id="path80"
         d="M 0,0 V 12.689 C -0.701,12.6 -1.367,12.474 -2.087,12.384 V 0 Z"
         style="fill:#0887c9;fill-opacity:1;fill-rule:nonzero;stroke:none"
         transform="matrix(1.3333333,0,0,-1.3333333,253.11587,341.6868)"
         clip-path="url(#clipPath81)" />
      <path
         id="path82"
         d="m 0,0 v -5.796 h -1.529 l -0.325,0.756 c -0.828,-0.54 -1.835,-0.936 -2.7,-0.936 -1.548,0 -2.214,1.026 -2.214,2.538 0,1.782 0.756,2.394 2.502,2.394 h 2.197 v 1.188 c 0,0.99 -0.235,1.404 -1.639,1.404 -0.773,0 -1.512,-0.144 -2.25,-0.306 l -0.27,1.494 c 0.829,0.252 1.926,0.413 2.844,0.413 C -0.701,3.149 0,2.196 0,0 m -2.069,-3.924 v 1.548 h -1.819 c -0.774,0 -0.954,-0.324 -0.954,-1.008 0,-0.63 0.18,-1.008 0.918,-1.008 0.631,0 1.404,0.216 1.855,0.468"
         style="fill:#0887c9;fill-opacity:1;fill-rule:nonzero;stroke:none"
         transform="matrix(1.3333333,0,0,-1.3333333,247.71613,333.95893)"
         clip-path="url(#clipPath83)" />
      <path
         id="path84"
         d="m 0,0 c -0.235,-0.539 -0.516,-1.056 -0.841,-1.546 1.78,-1.776 5.905,-6.118 4.91,-7.147 -0.99,-1.028 -5.435,2.901 -7.288,4.631 -0.47,-0.351 -0.976,-0.663 -1.513,-0.931 0.657,-2.446 2.04,-8.22 0.669,-8.612 -1.364,-0.393 -3.238,5.177 -3.985,7.621 -0.604,-0.073 -1.204,-0.09 -1.797,-0.054 -0.661,-2.468 -2.34,-8.101 -3.717,-7.757 -1.371,0.342 -0.226,6.051 0.352,8.559 -0.558,0.24 -1.092,0.529 -1.598,0.865 -1.818,-1.817 -6.058,-5.818 -7.074,-4.836 -1.013,0.977 2.8,5.319 4.564,7.214 -0.361,0.485 -0.682,1.007 -0.954,1.563 -2.496,-0.667 -8.134,-2 -8.522,-0.645 -0.388,1.351 5.072,3.202 7.55,3.963 -0.07,0.616 -0.082,1.23 -0.04,1.834 -2.496,0.672 -8.039,2.335 -7.698,3.701 0.34,1.366 6.01,0.235 8.531,-0.345 0.246,0.558 0.543,1.093 0.885,1.597 -1.82,1.823 -5.81,6.053 -4.83,7.069 0.981,1.015 5.35,-2.827 7.234,-4.582 0.484,0.352 1.003,0.664 1.555,0.929 -0.662,2.473 -2.018,8.174 -0.656,8.565 1.364,0.391 3.238,-5.177 3.985,-7.621 0.601,0.064 1.2,0.071 1.79,0.028 0.656,2.454 2.342,8.125 3.724,7.781 1.383,-0.345 0.203,-6.161 -0.368,-8.63 0.539,-0.241 1.057,-0.529 1.547,-0.86 1.779,1.784 6.111,5.897 7.141,4.903 1.029,-0.994 -2.929,-5.466 -4.65,-7.307 0.342,-0.47 0.646,-0.972 0.906,-1.506 2.421,0.652 8.26,2.06 8.656,0.681 C 8.863,7.747 3.182,5.85 0.776,5.118 0.842,4.529 0.854,3.943 0.817,3.365 3.239,2.72 9.003,1.019 8.656,-0.374 8.31,-1.763 2.454,-0.569 0,0 m -39.99,-9.818 c -2.667,1.539 -4.004,2.627 -4.624,3.417 -0.561,-0.814 -1.887,-1.947 -4.714,-3.579 -6.644,-3.836 -10.121,-7.881 -18.839,-8.026 4.566,7.451 9.727,8.465 16.37,12.301 2.668,1.54 4.277,2.154 5.272,2.296 -0.423,0.893 -0.743,2.608 -0.743,5.872 0,7.671 -1.764,12.706 2.47,20.328 4.17,-7.681 2.467,-12.657 2.467,-20.328 0,-3.08 -0.273,-4.781 -0.647,-5.713 0.985,-0.08 2.629,-0.661 5.457,-2.293 6.644,-3.836 11.885,-4.826 16.37,-12.303 -8.738,0.229 -12.195,4.192 -18.839,8.028 m 13.482,47.477 c -25.82,0 -47.313,-11.228 -47.313,-47.313 0,-9.067 1.357,-16.92 3.799,-23.598 2.634,0.512 5.112,1.301 7.368,2.32 3.484,-1.576 7.495,-2.599 11.799,-2.898 1.628,0.114 3.205,0.349 4.737,0.659 l -1.13,22.136 c 0.96,0.627 2.257,2.728 2.457,3.002 0.263,-0.26 1.937,-2.49 2.732,-3.002 l -0.893,-21.351 c 1.357,0.412 2.66,0.896 3.894,1.454 3.488,-1.578 7.504,-2.601 11.811,-2.9 4.309,0.299 8.324,1.322 11.812,2.9 3.484,-1.576 7.495,-2.599 11.798,-2.898 4.303,0.299 8.314,1.322 11.798,2.898 2.398,-1.084 5.044,-1.906 7.864,-2.412 2.356,6.698 3.653,14.58 3.653,23.69 0,36.085 -20.366,47.313 -46.186,47.313 m 15.321,-26.577 c -3.897,-1.118 -6.151,-5.184 -5.033,-9.081 1.117,-3.898 5.183,-6.151 9.08,-5.033 3.897,1.117 6.151,5.182 5.034,9.08 -1.118,3.897 -5.184,6.151 -9.081,5.034"
         style="fill:#0887c9;fill-opacity:1;fill-rule:nonzero;stroke:none"
         transform="matrix(1.3333333,0,0,-1.3333333,191.76107,350.98827)"
         clip-path="url(#clipPath85)" />
    </g>
  </g>
</svg>
